<svg width="20" height="20" viewBox="0 0 20 20" fill="none" xmlns="http://www.w3.org/2000/svg">
<path d="M13.9248 11.8899C14.7407 10.6778 15.2175 9.21945 15.2175 7.65172C15.2175 3.45625 11.8042 0.0429688 7.60871 0.0429688C3.41324 0.0429688 0 3.45625 0 7.65168C0 11.8471 3.41328 15.2604 7.60875 15.2604C9.20742 15.2604 10.6921 14.7644 11.9181 13.9188L17.9822 19.9566L20 17.9389L13.9248 11.8899ZM7.60875 13.1234C4.59832 13.1234 2.14906 10.6741 2.14906 7.66367C2.14906 4.65324 4.59828 2.20402 7.60875 2.20402C10.6192 2.20402 13.0684 4.65324 13.0684 7.66371C13.0684 10.6742 10.6192 13.1234 7.60875 13.1234Z" fill="white" fill-opacity="0.8"/>
</svg>
