<svg width="24" height="25" viewBox="0 0 24 25" fill="none" xmlns="http://www.w3.org/2000/svg">
<path fill-rule="evenodd" clip-rule="evenodd" d="M22.6884 0L23.8821 21.4874C23.9557 22.8121 22.9415 23.9457 21.6168 24.0193C21.5502 24.0223 21.5502 24.0223 21.4837 24.023H21.4837H21.4835H2.4023C1.07554 24.023 0 22.9474 0 21.6207C0.000616685 21.554 0.000616685 21.554 0.00369869 21.4874L1.19744 0H22.6884ZM3.46996 2.40238L2.40227 21.6207H21.4835L20.4158 2.40238H3.46996ZM8.33949 4.80476H5.9372V7.80763C5.9372 10.6912 8.72775 13.2128 11.9429 13.2128C15.1581 13.2128 17.9487 10.6912 17.9487 7.80763V4.80476H15.5464V7.80763C15.5464 9.30711 13.8826 10.8105 11.9429 10.8105C10.0032 10.8105 8.33949 9.30711 8.33949 7.80763V4.80476Z" fill="black"/>
</svg>
