<svg width="24" height="22" viewBox="0 0 24 22" fill="none" xmlns="http://www.w3.org/2000/svg">
<path fill-rule="evenodd" clip-rule="evenodd" d="M16.9672 1.74143e-05C15.3879 0 14.3699 0.186521 13.2029 0.752809C12.7708 0.962467 12.3655 1.21496 11.9891 1.50953C11.6271 1.23147 11.238 0.990574 10.8238 0.787484C9.63417 0.204162 8.56394 0 7.04132 0C2.96339 0 0 3.34972 0 7.70021C0 10.9857 1.84782 14.1594 5.28964 17.2283C7.09625 18.8392 9.4029 20.4333 11.0548 21.2814L12 21.7666L12.9452 21.2814C14.5971 20.4333 16.9038 18.8392 18.7104 17.2283C22.1522 14.1594 24 10.9857 24 7.70021C24 3.39577 21.0087 0.0166102 16.9672 1.74143e-05ZM21.8183 7.70028C21.8183 10.2743 20.2759 12.9234 17.2514 15.6202C15.6024 17.0904 13.4826 18.5598 12.0001 19.3306C10.5176 18.5598 8.39769 17.0904 6.74873 15.6202C3.72424 12.9234 2.18189 10.2743 2.18189 7.70028C2.18189 4.48586 4.23677 2.16309 7.04139 2.16309C8.25201 2.16309 8.99802 2.3054 9.85658 2.72638C10.3637 2.97505 10.8119 3.3034 11.1999 3.71372L12.0026 4.56263L12.798 3.70699C13.1947 3.28023 13.6495 2.94441 14.1622 2.69565C14.9956 2.29124 15.695 2.16309 16.9627 2.16309C19.7327 2.17448 21.8183 4.53047 21.8183 7.70028Z" fill="white"/>
</svg>
