<svg width="24" height="22" viewBox="0 0 24 22" fill="none" xmlns="http://www.w3.org/2000/svg">
<path fill-rule="evenodd" clip-rule="evenodd" d="M13.2029 0.752809C14.3699 0.186521 15.3879 -1.66378e-06 16.9672 1.74143e-05C21.0087 0.0166102 24 3.39577 24 7.70021C24 10.9857 22.1522 14.1594 18.7104 17.2283C16.9038 18.8392 14.5971 20.4333 12.9452 21.2814L12 21.7666L11.0548 21.2814C9.4029 20.4333 7.09625 18.8392 5.28964 17.2283C1.84782 14.1594 0 10.9857 0 7.70021C0 3.34972 2.96339 0 7.04132 0C8.56394 0 9.63417 0.204162 10.8238 0.787484C11.238 0.990574 11.6271 1.23147 11.9891 1.50953C12.3655 1.21496 12.7708 0.962467 13.2029 0.752809Z" fill="white"/>
</svg>
