<svg width="46" height="46" viewBox="0 0 46 46" fill="none" xmlns="http://www.w3.org/2000/svg">
<path d="M33.0625 33.0664C32.665 33.0664 32.3438 32.7444 32.3438 32.3477V26.5977C32.3438 26.2009 32.665 25.8789 33.0625 25.8789C33.46 25.8789 33.7812 26.2009 33.7812 26.5977V32.3477C33.7812 32.7444 33.46 33.0664 33.0625 33.0664Z" fill="white"/>
<path d="M38.8125 33.0664H33.0625C32.665 33.0664 32.3438 32.7444 32.3438 32.3477C32.3438 31.9509 32.665 31.6289 33.0625 31.6289H38.8125C39.21 31.6289 39.5312 31.9509 39.5312 32.3477C39.5312 32.7444 39.21 33.0664 38.8125 33.0664Z" fill="white"/>
<path d="M19.2517 40.2541C19.1274 40.2541 19.0037 40.2225 18.8923 40.1578L3.95312 31.5328C3.73031 31.4041 3.59375 31.1669 3.59375 30.9103V13.6603C3.59375 13.4037 3.73031 13.1658 3.95312 13.0379L18.8923 4.4129C19.1152 4.28424 19.3883 4.28424 19.6111 4.4129L34.5503 13.0379C34.7731 13.1666 34.9097 13.4037 34.9097 13.6603V20.9032C34.9097 21.2999 34.5884 21.6219 34.1909 21.6219C33.7935 21.6219 33.4722 21.2999 33.4722 20.9032V14.0751L19.2517 5.86549L5.03125 14.0751V30.4956L19.2517 38.7052L22.4214 36.8752C22.7657 36.6762 23.2048 36.794 23.4032 37.1383C23.6016 37.4826 23.4837 37.9217 23.1402 38.1201L19.6111 40.1571C19.4997 40.2217 19.3761 40.2541 19.2517 40.2541Z" fill="white"/>
<path d="M32.996 41.6849C32.9953 41.6849 32.996 41.6849 32.996 41.6849C32.1012 41.6849 31.2106 41.5519 30.3474 41.2903C27.0397 40.2869 24.4997 37.445 23.8744 34.0496C23.2376 30.5931 24.6391 26.9944 27.4473 24.8798C29.0443 23.6773 31.0453 23.0146 33.0815 23.0146C34.555 23.0146 36.014 23.3618 37.3028 24.0195C40.4042 25.6007 42.4073 28.8696 42.4073 32.3476C42.4073 34.8546 41.3967 37.2143 39.5611 38.9903C37.7929 40.7024 35.3995 41.6849 32.996 41.6849ZM33.0815 24.4521C31.3558 24.4521 29.661 25.0121 28.3119 26.0276C25.9357 27.8173 24.7491 30.8641 25.2881 33.7887C25.8164 36.6616 27.9669 39.0658 30.7643 39.9139C33.4574 40.7311 36.5013 39.9506 38.5613 37.9567C40.1152 36.4546 40.9698 34.4622 40.9698 32.3476C40.9698 29.4043 39.2743 26.6379 36.6501 25.2996C35.5634 24.7454 34.3293 24.4521 33.0815 24.4521Z" fill="white"/>
<path d="M10.3445 17.8618C10.0958 17.8618 9.8543 17.7332 9.72133 17.5024C9.52295 17.1582 9.64083 16.719 9.98439 16.5206L24.9236 7.89563C25.2658 7.69654 25.7064 7.81441 25.9054 8.15869C26.1038 8.50298 25.9859 8.94213 25.6424 9.14051L10.7031 17.7655C10.5903 17.8309 10.4667 17.8618 10.3445 17.8618Z" fill="white"/>
<path d="M13.2195 19.5217C12.9708 19.5217 12.7293 19.393 12.5963 19.1623C12.398 18.818 12.5158 18.3788 12.8594 18.1805L27.7986 9.55547C28.1415 9.35709 28.5813 9.47425 28.7804 9.81853C28.9788 10.1628 28.8609 10.602 28.5174 10.8003L13.5781 19.4253C13.4653 19.4907 13.3417 19.5217 13.2195 19.5217Z" fill="white"/>
<path d="M13.2188 24.501C12.822 24.501 12.5 24.179 12.5 23.7822V18.8027C12.5 18.406 12.822 18.084 13.2188 18.084C13.6155 18.084 13.9375 18.406 13.9375 18.8027V23.7822C13.9375 24.179 13.6155 24.501 13.2188 24.501Z" fill="white"/>
<path d="M13.2182 24.5008C13.0967 24.5008 12.9724 24.4699 12.8595 24.4045L9.98455 22.7442C9.64027 22.5458 9.52311 22.1059 9.72148 21.7624C9.91986 21.4188 10.3597 21.2995 10.7033 21.4993L13.5783 23.1596C13.9226 23.358 14.0397 23.7979 13.8414 24.1414C13.7084 24.3722 13.4669 24.5008 13.2182 24.5008Z" fill="white"/>
<path d="M10.3438 22.8408C9.947 22.8408 9.625 22.5188 9.625 22.1221V17.1426C9.625 16.7458 9.947 16.4238 10.3438 16.4238C10.7405 16.4238 11.0625 16.7458 11.0625 17.1426V22.1221C11.0625 22.5195 10.7405 22.8408 10.3438 22.8408Z" fill="white"/>
<path d="M19.252 40.2539C18.8552 40.2539 18.5332 39.9319 18.5332 39.5352V22.2852C18.5332 21.8884 18.8552 21.5664 19.252 21.5664C19.6487 21.5664 19.9707 21.8884 19.9707 22.2852V39.5352C19.9707 39.9319 19.6487 40.2539 19.252 40.2539Z" fill="white"/>
<path d="M19.2512 23.0042C19.1297 23.0042 19.0061 22.9733 18.8925 22.9079L3.9533 14.2829C3.60902 14.0846 3.49186 13.6447 3.69023 13.3011C3.88861 12.9576 4.32777 12.839 4.67205 13.0381L19.6113 21.663C19.9555 21.8614 20.0727 22.3013 19.8743 22.6448C19.7406 22.8756 19.4991 23.0042 19.2512 23.0042Z" fill="white"/>
<path d="M19.2527 23.0034C19.004 23.0034 18.7625 22.8748 18.6295 22.644C18.4312 22.2998 18.549 21.8606 18.8926 21.6622L33.8318 13.0372C34.1747 12.8381 34.6145 12.956 34.8136 13.3003C35.012 13.6446 34.8941 14.0837 34.5506 14.2821L19.6113 22.9071C19.4978 22.9725 19.3742 23.0034 19.2527 23.0034Z" fill="white"/>
</svg>
