<svg width="24" height="24" viewBox="0 0 24 24" fill="none" xmlns="http://www.w3.org/2000/svg">
<path fill-rule="evenodd" clip-rule="evenodd" d="M12.6498 11.3332C10.5064 11.3332 8.7054 9.84598 8.19473 7.83327H0V5.49998H8.19471C8.70535 3.48723 10.5064 2 12.6498 2C15.1903 2 17.2498 4.0893 17.2498 6.66658C17.2498 9.24387 15.1903 11.3332 12.6498 11.3332ZM19.5498 7.83327V5.49998H22.9998V7.83327H19.5498ZM6.8998 23.0001C4.75641 23.0001 2.95541 21.513 2.44474 19.5003H0V17.167H2.44471C2.95534 15.1542 4.75637 13.667 6.8998 13.667C9.44031 13.667 11.4998 15.7563 11.4998 18.3336C11.4998 20.9108 9.44031 23.0001 6.8998 23.0001ZM13.7998 17.167V19.5003H22.9998V17.167H13.7998ZM9.2001 18.3274C9.2001 19.6161 8.17035 20.6607 6.9001 20.6607C5.62984 20.6607 4.6001 19.6161 4.6001 18.3274C4.6001 17.0388 5.62984 15.9941 6.9001 15.9941C8.17035 15.9941 9.2001 17.0388 9.2001 18.3274ZM14.9501 6.66633C14.9501 7.95497 13.9204 8.99962 12.6501 8.99962C11.3798 8.99962 10.3501 7.95497 10.3501 6.66633C10.3501 5.37768 11.3798 4.33303 12.6501 4.33303C13.9204 4.33303 14.9501 5.37768 14.9501 6.66633Z" fill="white" fill-opacity="0.8"/>
</svg>
